<svg xmlns="http://www.w3.org/2000/svg" xmlns:xlink="http://www.w3.org/1999/xlink" width="2000" zoomAndPan="magnify" viewBox="0 0 1500 1499.999933" height="2000" preserveAspectRatio="xMidYMid meet" version="1.0"><defs><clipPath id="5e17fc8e7b"><path d="M 18.75 18.75 L 1481.25 18.75 L 1481.25 1481.25 L 18.75 1481.25 Z M 18.75 18.75 " clip-rule="nonzero"/></clipPath><clipPath id="97c8ec645c"><path d="M 168.75 18.75 L 1331.25 18.75 C 1371.03125 18.75 1409.183594 34.554688 1437.316406 62.683594 C 1465.445312 90.8125 1481.25 128.96875 1481.25 168.75 L 1481.25 1331.25 C 1481.25 1371.03125 1465.445312 1409.183594 1437.316406 1437.316406 C 1409.183594 1465.445312 1371.03125 1481.25 1331.25 1481.25 L 168.75 1481.25 C 128.96875 1481.25 90.816406 1465.445312 62.683594 1437.316406 C 34.554688 1409.183594 18.75 1371.03125 18.75 1331.25 L 18.75 168.75 C 18.75 128.96875 34.554688 90.8125 62.683594 62.683594 C 90.816406 34.554688 128.96875 18.75 168.75 18.75 Z M 168.75 18.75 " clip-rule="nonzero"/></clipPath><clipPath id="4e45d889b3"><path d="M 0.75 0.75 L 1463.25 0.75 L 1463.25 1463.25 L 0.75 1463.25 Z M 0.75 0.75 " clip-rule="nonzero"/></clipPath><clipPath id="a1ea7fc82d"><path d="M 150.75 0.75 L 1313.25 0.75 C 1353.03125 0.75 1391.183594 16.554688 1419.316406 44.683594 C 1447.445312 72.8125 1463.25 110.96875 1463.25 150.75 L 1463.25 1313.25 C 1463.25 1353.03125 1447.445312 1391.183594 1419.316406 1419.316406 C 1391.183594 1447.445312 1353.03125 1463.25 1313.25 1463.25 L 150.75 1463.25 C 110.96875 1463.25 72.816406 1447.445312 44.683594 1419.316406 C 16.554688 1391.183594 0.75 1353.03125 0.75 1313.25 L 0.75 150.75 C 0.75 110.96875 16.554688 72.8125 44.683594 44.683594 C 72.816406 16.554688 110.96875 0.75 150.75 0.75 Z M 150.75 0.75 " clip-rule="nonzero"/></clipPath><clipPath id="853ceef6c0"><rect x="0" width="1464" y="0" height="1464"/></clipPath><clipPath id="32eefd6c44"><path d="M 18 18 L 520 18 L 520 520 L 18 520 Z M 18 18 " clip-rule="nonzero"/></clipPath><clipPath id="d9704b2100"><path d="M 299.167969 30.707031 L 507.058594 238.597656 C 515.078125 246.613281 519.582031 257.488281 519.582031 268.824219 C 519.582031 280.164062 515.078125 291.039062 507.058594 299.054688 L 299.167969 506.945312 C 291.152344 514.960938 280.277344 519.464844 268.941406 519.464844 C 257.601562 519.464844 246.730469 514.960938 238.710938 506.945312 L 30.820312 299.054688 C 22.804688 291.039062 18.300781 280.164062 18.300781 268.824219 C 18.300781 257.488281 22.804688 246.613281 30.820312 238.597656 L 238.710938 30.707031 C 246.730469 22.691406 257.601562 18.1875 268.941406 18.1875 C 280.277344 18.1875 291.152344 22.691406 299.167969 30.707031 Z M 299.167969 30.707031 " clip-rule="nonzero"/></clipPath><clipPath id="5639a6c35c"><path d="M 0.28125 0.0390625 L 501.640625 0.0390625 L 501.640625 501.640625 L 0.28125 501.640625 Z M 0.28125 0.0390625 " clip-rule="nonzero"/></clipPath><clipPath id="3260c415bd"><path d="M 281.167969 12.707031 L 489.058594 220.597656 C 497.078125 228.613281 501.582031 239.488281 501.582031 250.824219 C 501.582031 262.164062 497.078125 273.039062 489.058594 281.054688 L 281.167969 488.945312 C 273.152344 496.960938 262.277344 501.464844 250.941406 501.464844 C 239.601562 501.464844 228.730469 496.960938 220.710938 488.945312 L 12.820312 281.054688 C 4.804688 273.039062 0.300781 262.164062 0.300781 250.824219 C 0.300781 239.488281 4.804688 228.613281 12.820312 220.597656 L 220.710938 12.707031 C 228.730469 4.691406 239.601562 0.1875 250.941406 0.1875 C 262.277344 0.1875 273.152344 4.691406 281.167969 12.707031 Z M 281.167969 12.707031 " clip-rule="nonzero"/></clipPath><clipPath id="bdffd5f3fa"><rect x="0" width="502" y="0" height="502"/></clipPath><clipPath id="630790ffdf"><path d="M 308.011719 286 L 811 286 L 811 788 L 308.011719 788 Z M 308.011719 286 " clip-rule="nonzero"/></clipPath><clipPath id="6e1394baaa"><path d="M 589.816406 299.054688 L 797.707031 506.945312 C 805.722656 514.960938 810.226562 525.835938 810.226562 537.175781 C 810.226562 548.511719 805.722656 559.386719 797.707031 567.402344 L 589.816406 775.292969 C 581.800781 783.308594 570.925781 787.8125 559.589844 787.8125 C 548.25 787.8125 537.375 783.308594 529.359375 775.292969 L 321.46875 567.402344 C 313.453125 559.386719 308.949219 548.511719 308.949219 537.175781 C 308.949219 525.835938 313.453125 514.960938 321.46875 506.945312 L 529.359375 299.054688 C 537.375 291.039062 548.25 286.535156 559.589844 286.535156 C 570.925781 286.535156 581.800781 291.039062 589.816406 299.054688 Z M 589.816406 299.054688 " clip-rule="nonzero"/></clipPath><clipPath id="e7543af3ef"><path d="M 0.921875 0.359375 L 502.28125 0.359375 L 502.28125 501.960938 L 0.921875 501.960938 Z M 0.921875 0.359375 " clip-rule="nonzero"/></clipPath><clipPath id="a939e3178c"><path d="M 281.816406 13.054688 L 489.707031 220.945312 C 497.722656 228.960938 502.226562 239.835938 502.226562 251.175781 C 502.226562 262.511719 497.722656 273.386719 489.707031 281.402344 L 281.816406 489.292969 C 273.800781 497.308594 262.925781 501.8125 251.589844 501.8125 C 240.25 501.8125 229.375 497.308594 221.359375 489.292969 L 13.46875 281.402344 C 5.453125 273.386719 0.949219 262.511719 0.949219 251.175781 C 0.949219 239.835938 5.453125 228.960938 13.46875 220.945312 L 221.359375 13.054688 C 229.375 5.039062 240.25 0.535156 251.589844 0.535156 C 262.925781 0.535156 273.800781 5.039062 281.816406 13.054688 Z M 281.816406 13.054688 " clip-rule="nonzero"/></clipPath><clipPath id="47fcdd44f8"><rect x="0" width="503" y="0" height="502"/></clipPath><clipPath id="1f0a4db4c3"><path d="M 610 18 L 1112 18 L 1112 520 L 610 520 Z M 610 18 " clip-rule="nonzero"/></clipPath><clipPath id="3d5cf3d9f2"><path d="M 891.289062 30.707031 L 1099.179688 238.597656 C 1107.195312 246.613281 1111.699219 257.488281 1111.699219 268.824219 C 1111.699219 280.164062 1107.195312 291.039062 1099.179688 299.054688 L 891.289062 506.945312 C 883.269531 514.960938 872.398438 519.464844 861.058594 519.464844 C 849.722656 519.464844 838.847656 514.960938 830.832031 506.945312 L 622.941406 299.054688 C 614.921875 291.039062 610.417969 280.164062 610.417969 268.824219 C 610.417969 257.488281 614.921875 246.613281 622.941406 238.597656 L 830.832031 30.707031 C 838.847656 22.691406 849.722656 18.1875 861.058594 18.1875 C 872.398438 18.1875 883.269531 22.691406 891.289062 30.707031 Z M 891.289062 30.707031 " clip-rule="nonzero"/></clipPath><clipPath id="95350a25d9"><path d="M 0.359375 0.0390625 L 501.71875 0.0390625 L 501.71875 501.640625 L 0.359375 501.640625 Z M 0.359375 0.0390625 " clip-rule="nonzero"/></clipPath><clipPath id="4ab823817f"><path d="M 281.289062 12.707031 L 489.179688 220.597656 C 497.195312 228.613281 501.699219 239.488281 501.699219 250.824219 C 501.699219 262.164062 497.195312 273.039062 489.179688 281.054688 L 281.289062 488.945312 C 273.269531 496.960938 262.398438 501.464844 251.058594 501.464844 C 239.722656 501.464844 228.847656 496.960938 220.832031 488.945312 L 12.941406 281.054688 C 4.921875 273.039062 0.417969 262.164062 0.417969 250.824219 C 0.417969 239.488281 4.921875 228.613281 12.941406 220.597656 L 220.832031 12.707031 C 228.847656 4.691406 239.722656 0.1875 251.058594 0.1875 C 262.398438 0.1875 273.269531 4.691406 281.289062 12.707031 Z M 281.289062 12.707031 " clip-rule="nonzero"/></clipPath><clipPath id="fbc85c4d6a"><rect x="0" width="502" y="0" height="502"/></clipPath><clipPath id="e438fb1096"><rect x="0" width="1130" y="0" height="806"/></clipPath></defs><g clip-path="url(#5e17fc8e7b)"><g clip-path="url(#97c8ec645c)"><g transform="matrix(1, 0, 0, 1, 18, 18)"><g clip-path="url(#853ceef6c0)"><g clip-path="url(#4e45d889b3)"><g clip-path="url(#a1ea7fc82d)"><path fill="#006145" d="M 0.75 0.75 L 1463.25 0.75 L 1463.25 1463.25 L 0.75 1463.25 Z M 0.75 0.75 " fill-opacity="1" fill-rule="nonzero"/></g></g></g></g></g></g><g transform="matrix(1, 0, 0, 1, 185, 347)"><g clip-path="url(#e438fb1096)"><g clip-path="url(#32eefd6c44)"><g clip-path="url(#d9704b2100)"><g transform="matrix(1, 0, 0, 1, 18, 18)"><g clip-path="url(#bdffd5f3fa)"><g clip-path="url(#5639a6c35c)"><g clip-path="url(#3260c415bd)"><rect x="-749" width="2592" fill="#13120a" y="-910.999976" height="2591.999885" fill-opacity="1"/></g></g></g></g></g></g><g clip-path="url(#630790ffdf)"><g clip-path="url(#6e1394baaa)"><g transform="matrix(1, 0, 0, 1, 308, 286)"><g clip-path="url(#47fcdd44f8)"><g clip-path="url(#e7543af3ef)"><g clip-path="url(#a939e3178c)"><rect x="-1039" width="2592" fill="#13120a" y="-1178.999976" height="2591.999885" fill-opacity="1"/></g></g></g></g></g></g><g clip-path="url(#1f0a4db4c3)"><g clip-path="url(#3d5cf3d9f2)"><g transform="matrix(1, 0, 0, 1, 610, 18)"><g clip-path="url(#fbc85c4d6a)"><g clip-path="url(#95350a25d9)"><g clip-path="url(#4ab823817f)"><rect x="-1341" width="2592" fill="#13120a" y="-910.999976" height="2591.999885" fill-opacity="1"/></g></g></g></g></g></g></g></g></svg>