<svg xmlns="http://www.w3.org/2000/svg" xmlns:xlink="http://www.w3.org/1999/xlink" width="2000" zoomAndPan="magnify" viewBox="0 0 1500 1499.999933" height="2000" preserveAspectRatio="xMidYMid meet" version="1.0"><defs><clipPath id="e3fc18cd7a"><path d="M 18.75 18.75 L 1481.25 18.75 L 1481.25 1481.25 L 18.75 1481.25 Z M 18.75 18.75 " clip-rule="nonzero"/></clipPath><clipPath id="aeb11d8410"><path d="M 168.75 18.75 L 1331.25 18.75 C 1371.03125 18.75 1409.183594 34.554688 1437.316406 62.683594 C 1465.445312 90.8125 1481.25 128.96875 1481.25 168.75 L 1481.25 1331.25 C 1481.25 1371.03125 1465.445312 1409.183594 1437.316406 1437.316406 C 1409.183594 1465.445312 1371.03125 1481.25 1331.25 1481.25 L 168.75 1481.25 C 128.96875 1481.25 90.816406 1465.445312 62.683594 1437.316406 C 34.554688 1409.183594 18.75 1371.03125 18.75 1331.25 L 18.75 168.75 C 18.75 128.96875 34.554688 90.8125 62.683594 62.683594 C 90.816406 34.554688 128.96875 18.75 168.75 18.75 Z M 168.75 18.75 " clip-rule="nonzero"/></clipPath><clipPath id="a22e1c29e5"><path d="M 0.75 0.75 L 1463.25 0.75 L 1463.25 1463.25 L 0.75 1463.25 Z M 0.75 0.75 " clip-rule="nonzero"/></clipPath><clipPath id="0d46c13d56"><path d="M 150.75 0.75 L 1313.25 0.75 C 1353.03125 0.75 1391.183594 16.554688 1419.316406 44.683594 C 1447.445312 72.8125 1463.25 110.96875 1463.25 150.75 L 1463.25 1313.25 C 1463.25 1353.03125 1447.445312 1391.183594 1419.316406 1419.316406 C 1391.183594 1447.445312 1353.03125 1463.25 1313.25 1463.25 L 150.75 1463.25 C 110.96875 1463.25 72.816406 1447.445312 44.683594 1419.316406 C 16.554688 1391.183594 0.75 1353.03125 0.75 1313.25 L 0.75 150.75 C 0.75 110.96875 16.554688 72.8125 44.683594 44.683594 C 72.816406 16.554688 110.96875 0.75 150.75 0.75 Z M 150.75 0.75 " clip-rule="nonzero"/></clipPath><clipPath id="71a66a277c"><rect x="0" width="1464" y="0" height="1464"/></clipPath><clipPath id="6033a75364"><path d="M 216 231 L 1285.855469 231 L 1285.855469 1303.574219 L 216 1303.574219 Z M 216 231 " clip-rule="nonzero"/></clipPath><clipPath id="355dae806e"><path d="M 1122.863281 355.609375 L 915.566406 653.582031 C 910.496094 660.875 909.136719 670.121094 911.894531 678.566406 C 914.65625 687.007812 921.214844 693.671875 929.613281 696.558594 L 1258.890625 809.773438 C 1278.753906 816.605469 1289.773438 837.8125 1283.941406 857.992188 L 1254.738281 959.054688 C 1252.023438 968.453125 1245.578125 976.328125 1236.90625 980.851562 C 1228.230469 985.375 1218.085938 986.152344 1208.824219 983.003906 L 875.28125 869.554688 C 867.078125 866.765625 858.039062 868.101562 850.996094 873.144531 C 843.953125 878.1875 839.777344 886.316406 839.777344 894.976562 L 839.777344 1266.074219 C 839.777344 1286.785156 822.988281 1303.574219 802.277344 1303.574219 L 703.277344 1303.574219 C 682.566406 1303.574219 665.777344 1286.785156 665.777344 1266.074219 L 665.777344 894.976562 C 665.777344 886.316406 661.601562 878.1875 654.558594 873.144531 C 647.515625 868.101562 638.472656 866.765625 630.273438 869.554688 L 296.730469 983.003906 C 287.390625 986.179688 277.167969 985.457031 268.367188 980.996094 C 259.570312 976.535156 252.945312 968.714844 249.988281 959.304688 L 218.089844 857.742188 C 211.839844 837.851562 222.613281 816.605469 242.355469 809.890625 L 575.898438 696.441406 C 584.296875 693.585938 590.863281 686.949219 593.632812 678.523438 C 596.402344 670.097656 595.050781 660.863281 589.988281 653.582031 L 382.691406 355.609375 C 370.703125 338.375 374.359375 314.761719 391 301.960938 L 472.929688 238.9375 C 480.679688 232.976562 490.53125 230.449219 500.195312 231.945312 C 509.855469 233.441406 518.484375 238.832031 524.066406 246.859375 L 731.363281 544.832031 C 736.238281 551.84375 744.238281 556.019531 752.777344 556.019531 C 761.316406 556.019531 769.316406 551.84375 774.191406 544.832031 L 981.488281 246.859375 C 987.070312 238.832031 995.699219 233.441406 1005.359375 231.945312 C 1015.023438 230.449219 1024.875 232.976562 1032.625 238.9375 L 1114.554688 301.960938 C 1131.195312 314.761719 1134.851562 338.375 1122.863281 355.609375 Z M 1122.863281 355.609375 " clip-rule="nonzero"/></clipPath><clipPath id="d47579f250"><path d="M 0 0 L 1069.855469 0 L 1069.855469 1072.574219 L 0 1072.574219 Z M 0 0 " clip-rule="nonzero"/></clipPath><clipPath id="2af917aa32"><path d="M 906.863281 124.609375 L 699.566406 422.582031 C 694.496094 429.875 693.136719 439.121094 695.894531 447.566406 C 698.65625 456.007812 705.214844 462.671875 713.613281 465.558594 L 1042.890625 578.773438 C 1062.753906 585.605469 1073.773438 606.8125 1067.941406 626.992188 L 1038.738281 728.054688 C 1036.023438 737.453125 1029.578125 745.328125 1020.90625 749.851562 C 1012.230469 754.375 1002.085938 755.152344 992.824219 752.003906 L 659.28125 638.554688 C 651.078125 635.765625 642.039062 637.101562 634.996094 642.144531 C 627.953125 647.1875 623.777344 655.316406 623.777344 663.976562 L 623.777344 1035.074219 C 623.777344 1055.785156 606.988281 1072.574219 586.277344 1072.574219 L 487.277344 1072.574219 C 466.566406 1072.574219 449.777344 1055.785156 449.777344 1035.074219 L 449.777344 663.976562 C 449.777344 655.316406 445.601562 647.1875 438.558594 642.144531 C 431.515625 637.101562 422.472656 635.765625 414.273438 638.554688 L 80.730469 752.003906 C 71.390625 755.179688 61.167969 754.457031 52.367188 749.996094 C 43.570312 745.535156 36.945312 737.714844 33.988281 728.304688 L 2.089844 626.742188 C -4.160156 606.851562 6.613281 585.605469 26.355469 578.890625 L 359.898438 465.441406 C 368.296875 462.585938 374.863281 455.949219 377.632812 447.523438 C 380.402344 439.097656 379.050781 429.863281 373.988281 422.582031 L 166.691406 124.609375 C 154.703125 107.375 158.359375 83.761719 175 70.960938 L 256.929688 7.9375 C 264.679688 1.976562 274.53125 -0.550781 284.195312 0.945312 C 293.855469 2.441406 302.484375 7.832031 308.066406 15.859375 L 515.363281 313.832031 C 520.238281 320.84375 528.238281 325.019531 536.777344 325.019531 C 545.316406 325.019531 553.316406 320.84375 558.191406 313.832031 L 765.488281 15.859375 C 771.070312 7.832031 779.699219 2.441406 789.359375 0.945312 C 799.023438 -0.550781 808.875 1.976562 816.625 7.9375 L 898.554688 70.960938 C 915.195312 83.761719 918.851562 107.375 906.863281 124.609375 Z M 906.863281 124.609375 " clip-rule="nonzero"/></clipPath><clipPath id="b2bf381155"><rect x="0" width="1070" y="0" height="1073"/></clipPath></defs><g clip-path="url(#e3fc18cd7a)"><g clip-path="url(#aeb11d8410)"><g transform="matrix(1, 0, 0, 1, 18, 18)"><g clip-path="url(#71a66a277c)"><g clip-path="url(#a22e1c29e5)"><g clip-path="url(#0d46c13d56)"><path fill="#006145" d="M 0.75 0.75 L 1463.25 0.75 L 1463.25 1463.25 L 0.75 1463.25 Z M 0.75 0.75 " fill-opacity="1" fill-rule="nonzero"/></g></g></g></g></g></g><g clip-path="url(#6033a75364)"><g clip-path="url(#355dae806e)"><g transform="matrix(1, 0, 0, 1, 216, 231)"><g clip-path="url(#b2bf381155)"><g clip-path="url(#d47579f250)"><g clip-path="url(#2af917aa32)"><path fill="#13120a" d="M -9.148438 -14.925781 L 1078.351562 -14.925781 L 1078.351562 1072.574219 L -9.148438 1072.574219 Z M -9.148438 -14.925781 " fill-opacity="1" fill-rule="nonzero"/></g></g></g></g></g></g></svg>