<svg xmlns="http://www.w3.org/2000/svg" xmlns:xlink="http://www.w3.org/1999/xlink" width="2000" zoomAndPan="magnify" viewBox="0 0 1500 1499.999933" height="2000" preserveAspectRatio="xMidYMid meet" version="1.0"><defs><clipPath id="7da4a17d5a"><path d="M 69 89 L 1431 89 L 1431 1425.859375 L 69 1425.859375 Z M 69 89 " clip-rule="nonzero"/></clipPath><clipPath id="ac28fe41ec"><path d="M 1227.601562 239.890625 L 953.773438 625.628906 C 948.671875 632.816406 947.269531 641.996094 949.996094 650.382812 C 952.71875 658.765625 959.25 665.367188 967.605469 668.179688 L 1404.117188 815.265625 C 1423.957031 821.953125 1434.96875 843.125 1429.046875 863.210938 L 1386.808594 1006.445312 C 1384.03125 1015.867188 1377.542969 1023.753906 1368.835938 1028.300781 C 1360.128906 1032.847656 1349.949219 1033.660156 1340.628906 1030.554688 L 898.679688 883.238281 C 890.4375 880.488281 881.375 881.871094 874.328125 886.953125 C 867.28125 892.03125 863.101562 900.191406 863.101562 908.878906 L 863.101562 1388.359375 C 863.101562 1398.304688 859.152344 1407.84375 852.121094 1414.875 C 845.085938 1421.90625 835.546875 1425.859375 825.601562 1425.859375 L 679.914062 1425.859375 C 669.96875 1425.859375 660.429688 1421.90625 653.398438 1414.875 C 646.363281 1407.84375 642.414062 1398.304688 642.414062 1388.359375 L 642.414062 908.878906 C 642.414062 900.191406 638.238281 892.03125 631.191406 886.953125 C 624.140625 881.871094 615.082031 880.488281 606.839844 883.238281 L 164.890625 1030.554688 C 155.492188 1033.6875 145.230469 1032.925781 136.398438 1028.445312 C 127.5625 1023.964844 120.890625 1016.132812 117.867188 1006.703125 L 71.792969 862.953125 C 65.449219 843.164062 76.210938 821.953125 95.921875 815.382812 L 537.875 668.066406 C 546.222656 665.28125 552.761719 658.707031 555.496094 650.339844 C 558.230469 641.972656 556.835938 632.804688 551.742188 625.628906 L 277.917969 239.890625 C 265.828125 222.863281 269.480469 199.308594 286.152344 186.738281 L 405.574219 96.714844 C 413.4375 90.789062 423.363281 88.292969 433.089844 89.800781 C 442.820312 91.308594 451.527344 96.691406 457.226562 104.71875 L 731.050781 490.457031 C 736.042969 497.488281 744.132812 501.667969 752.757812 501.667969 C 761.382812 501.667969 769.472656 497.488281 774.464844 490.457031 L 1048.292969 104.71875 C 1053.992188 96.691406 1062.695312 91.308594 1072.425781 89.800781 C 1082.15625 88.292969 1092.082031 90.789062 1099.941406 96.714844 L 1219.363281 186.738281 C 1236.039062 199.308594 1239.6875 222.863281 1227.601562 239.890625 Z M 1227.601562 239.890625 " clip-rule="nonzero"/></clipPath><clipPath id="c1633a1a30"><path d="M 0 0 L 1362 0 L 1362 1336.859375 L 0 1336.859375 Z M 0 0 " clip-rule="nonzero"/></clipPath><clipPath id="3b7a9a04e1"><path d="M 1158.601562 150.890625 L 884.773438 536.628906 C 879.671875 543.816406 878.269531 552.996094 880.996094 561.382812 C 883.71875 569.765625 890.25 576.367188 898.605469 579.179688 L 1335.117188 726.265625 C 1354.957031 732.953125 1365.96875 754.125 1360.046875 774.210938 L 1317.808594 917.445312 C 1315.03125 926.867188 1308.542969 934.753906 1299.835938 939.300781 C 1291.128906 943.847656 1280.949219 944.660156 1271.628906 941.554688 L 829.679688 794.238281 C 821.4375 791.488281 812.375 792.871094 805.328125 797.953125 C 798.28125 803.03125 794.101562 811.191406 794.101562 819.878906 L 794.101562 1299.359375 C 794.101562 1309.304688 790.152344 1318.84375 783.121094 1325.875 C 776.085938 1332.90625 766.546875 1336.859375 756.601562 1336.859375 L 610.914062 1336.859375 C 600.96875 1336.859375 591.429688 1332.90625 584.398438 1325.875 C 577.363281 1318.84375 573.414062 1309.304688 573.414062 1299.359375 L 573.414062 819.878906 C 573.414062 811.191406 569.238281 803.03125 562.191406 797.953125 C 555.140625 792.871094 546.082031 791.488281 537.839844 794.238281 L 95.890625 941.554688 C 86.492188 944.6875 76.230469 943.925781 67.398438 939.445312 C 58.5625 934.964844 51.890625 927.132812 48.867188 917.703125 L 2.792969 773.953125 C -3.550781 754.164062 7.210938 732.953125 26.921875 726.382812 L 468.875 579.066406 C 477.222656 576.28125 483.761719 569.707031 486.496094 561.339844 C 489.230469 552.972656 487.835938 543.804688 482.742188 536.628906 L 208.917969 150.890625 C 196.828125 133.863281 200.480469 110.308594 217.152344 97.738281 L 336.574219 7.714844 C 344.4375 1.789062 354.363281 -0.707031 364.089844 0.800781 C 373.820312 2.308594 382.527344 7.691406 388.226562 15.71875 L 662.050781 401.457031 C 667.042969 408.488281 675.132812 412.667969 683.757812 412.667969 C 692.382812 412.667969 700.472656 408.488281 705.464844 401.457031 L 979.292969 15.71875 C 984.992188 7.691406 993.695312 2.308594 1003.425781 0.800781 C 1013.15625 -0.707031 1023.082031 1.789062 1030.941406 7.714844 L 1150.363281 97.738281 C 1167.039062 110.308594 1170.6875 133.863281 1158.601562 150.890625 Z M 1158.601562 150.890625 " clip-rule="nonzero"/></clipPath><clipPath id="b146fbcba7"><rect x="0" width="1362" y="0" height="1337"/></clipPath></defs><g clip-path="url(#7da4a17d5a)"><g clip-path="url(#ac28fe41ec)"><g transform="matrix(1, 0, 0, 1, 69, 89)"><g clip-path="url(#b146fbcba7)"><g clip-path="url(#c1633a1a30)"><g clip-path="url(#3b7a9a04e1)"><path fill="#006145" d="M -8.652344 -14.859375 L 1369.464844 -14.859375 L 1369.464844 1336.859375 L -8.652344 1336.859375 Z M -8.652344 -14.859375 " fill-opacity="1" fill-rule="nonzero"/></g></g></g></g></g></g></svg>