<svg xmlns="http://www.w3.org/2000/svg" xmlns:xlink="http://www.w3.org/1999/xlink" width="2000" zoomAndPan="magnify" viewBox="0 0 1500 1499.999933" height="2000" preserveAspectRatio="xMidYMid meet" version="1.0"><defs><clipPath id="177957c3e3"><path d="M 17 17 L 696 17 L 696 696 L 17 696 Z M 17 17 " clip-rule="nonzero"/></clipPath><clipPath id="1afe07e76e"><path d="M 386.816406 30.347656 L 682.949219 326.476562 C 699.640625 343.171875 699.640625 370.238281 682.949219 386.933594 L 386.816406 683.066406 C 370.121094 699.761719 343.054688 699.761719 326.359375 683.066406 L 30.230469 386.933594 C 13.535156 370.238281 13.535156 343.171875 30.230469 326.476562 L 326.359375 30.347656 C 343.054688 13.652344 370.121094 13.652344 386.816406 30.347656 Z M 386.816406 30.347656 " clip-rule="nonzero"/></clipPath><clipPath id="8d93c435ea"><path d="M 0 0 L 679 0 L 679 679 L 0 679 Z M 0 0 " clip-rule="nonzero"/></clipPath><clipPath id="31a0230132"><path d="M 369.816406 13.347656 L 665.949219 309.476562 C 682.640625 326.171875 682.640625 353.238281 665.949219 369.933594 L 369.816406 666.066406 C 353.121094 682.761719 326.054688 682.761719 309.359375 666.066406 L 13.230469 369.933594 C -3.464844 353.238281 -3.464844 326.171875 13.230469 309.476562 L 309.359375 13.347656 C 326.054688 -3.347656 353.121094 -3.347656 369.816406 13.347656 Z M 369.816406 13.347656 " clip-rule="nonzero"/></clipPath><clipPath id="49df144e49"><rect x="0" width="679" y="0" height="679"/></clipPath><clipPath id="e2987d8d77"><path d="M 403 374 L 1082 374 L 1082 1053 L 403 1053 Z M 403 374 " clip-rule="nonzero"/></clipPath><clipPath id="30f1b8652c"><path d="M 773.035156 386.933594 L 1069.167969 683.066406 C 1085.863281 699.761719 1085.863281 726.828125 1069.167969 743.523438 L 773.035156 1039.652344 C 756.34375 1056.347656 729.273438 1056.347656 712.578125 1039.652344 L 416.449219 743.523438 C 399.753906 726.828125 399.753906 699.761719 416.449219 683.066406 L 712.578125 386.933594 C 729.273438 370.238281 756.34375 370.238281 773.035156 386.933594 Z M 773.035156 386.933594 " clip-rule="nonzero"/></clipPath><clipPath id="3b763d8236"><path d="M 0 0 L 679 0 L 679 679 L 0 679 Z M 0 0 " clip-rule="nonzero"/></clipPath><clipPath id="2172dfb908"><path d="M 370.035156 12.933594 L 666.167969 309.066406 C 682.863281 325.761719 682.863281 352.828125 666.167969 369.523438 L 370.035156 665.652344 C 353.34375 682.347656 326.273438 682.347656 309.578125 665.652344 L 13.449219 369.523438 C -3.246094 352.828125 -3.246094 325.761719 13.449219 309.066406 L 309.578125 12.933594 C 326.273438 -3.761719 353.34375 -3.761719 370.035156 12.933594 Z M 370.035156 12.933594 " clip-rule="nonzero"/></clipPath><clipPath id="122cbae849"><rect x="0" width="679" y="0" height="679"/></clipPath><clipPath id="e4881069cd"><path d="M 804 17 L 1483 17 L 1483 696 L 804 696 Z M 804 17 " clip-rule="nonzero"/></clipPath><clipPath id="dd37d26831"><path d="M 1173.640625 30.347656 L 1469.769531 326.476562 C 1486.464844 343.171875 1486.464844 370.238281 1469.769531 386.933594 L 1173.640625 683.066406 C 1156.945312 699.761719 1129.878906 699.761719 1113.183594 683.066406 L 817.050781 386.933594 C 800.359375 370.238281 800.359375 343.171875 817.050781 326.476562 L 1113.183594 30.347656 C 1129.878906 13.652344 1156.945312 13.652344 1173.640625 30.347656 Z M 1173.640625 30.347656 " clip-rule="nonzero"/></clipPath><clipPath id="2ae0a167c8"><path d="M 0 0 L 679 0 L 679 679 L 0 679 Z M 0 0 " clip-rule="nonzero"/></clipPath><clipPath id="489c6a467f"><path d="M 369.640625 13.347656 L 665.769531 309.476562 C 682.464844 326.171875 682.464844 353.238281 665.769531 369.933594 L 369.640625 666.066406 C 352.945312 682.761719 325.878906 682.761719 309.183594 666.066406 L 13.050781 369.933594 C -3.640625 353.238281 -3.640625 326.171875 13.050781 309.476562 L 309.183594 13.347656 C 325.878906 -3.347656 352.945312 -3.347656 369.640625 13.347656 Z M 369.640625 13.347656 " clip-rule="nonzero"/></clipPath><clipPath id="eb3ef18208"><rect x="0" width="679" y="0" height="679"/></clipPath><clipPath id="18e73da5e9"><rect x="0" width="1500" y="0" height="1070"/></clipPath></defs><g transform="matrix(1, 0, 0, 1, 0, 215)"><g clip-path="url(#18e73da5e9)"><g clip-path="url(#177957c3e3)"><g clip-path="url(#1afe07e76e)"><g transform="matrix(1, 0, 0, 1, 17, 17)"><g clip-path="url(#49df144e49)"><g clip-path="url(#8d93c435ea)"><g clip-path="url(#31a0230132)"><rect x="-563" width="2592" fill="#006145" y="-777.999976" height="2591.999885" fill-opacity="1"/></g></g></g></g></g></g><g clip-path="url(#e2987d8d77)"><g clip-path="url(#30f1b8652c)"><g transform="matrix(1, 0, 0, 1, 403, 374)"><g clip-path="url(#122cbae849)"><g clip-path="url(#3b763d8236)"><g clip-path="url(#2172dfb908)"><rect x="-949" width="2592" fill="#006145" y="-1134.999976" height="2591.999885" fill-opacity="1"/></g></g></g></g></g></g><g clip-path="url(#e4881069cd)"><g clip-path="url(#dd37d26831)"><g transform="matrix(1, 0, 0, 1, 804, 17)"><g clip-path="url(#eb3ef18208)"><g clip-path="url(#2ae0a167c8)"><g clip-path="url(#489c6a467f)"><rect x="-1350" width="2592" fill="#006145" y="-777.999976" height="2591.999885" fill-opacity="1"/></g></g></g></g></g></g></g></g></svg>